<?xml version="1.0" standalone="no"?>
<!DOCTYPE svg PUBLIC "-//W3C//DTD SVG 20010904//EN"
 "http://www.w3.org/TR/2001/REC-SVG-20010904/DTD/svg10.dtd">
<svg version="1.0" xmlns="http://www.w3.org/2000/svg"
 width="512.000000pt" height="512.000000pt" viewBox="0 0 512.000000 512.000000"
 preserveAspectRatio="xMidYMid meet">
<metadata>
Created by potrace 1.14, written by Peter Selinger 2001-2017
</metadata>
<g transform="translate(0.000000,512.000000) scale(0.100000,-0.100000)"
fill="#000000" stroke="none">
<path d="M4102 4519 c-126 -63 -138 -254 -20 -335 36 -25 50 -29 112 -29 58 0
77 4 104 23 74 53 104 128 88 217 -8 43 -68 113 -113 132 -48 20 -121 16 -171
-8z"/>
<path d="M2886 4447 c-22 -22 -27 -23 -242 -22 -167 0 -246 -5 -331 -19 l-112
-18 95 -91 c108 -102 189 -217 240 -338 19 -44 34 -85 34 -90 0 -11 52 4 -895
-249 -434 -117 -889 -238 -1010 -271 -250 -67 -268 -77 -267 -150 1 -58 36
-94 90 -92 31 1 824 210 1862 491 140 38 258 67 263 65 12 -7 8 -186 -8 -274
-76 -438 -424 -775 -864 -840 -170 -24 -397 8 -555 80 -158 71 -318 203 -415
342 l-48 68 -27 -107 c-42 -172 -56 -292 -56 -482 0 -234 30 -432 89 -604 12
-33 21 -61 21 -63 0 -1 -33 -3 -74 -3 -64 0 -79 -3 -102 -24 -39 -33 -39 -89
0 -122 25 -22 36 -24 136 -24 l110 0 25 -50 c14 -27 25 -52 25 -55 0 -3 -123
-5 -272 -5 -162 0 -289 -4 -311 -11 -50 -14 -113 -71 -128 -116 -18 -56 -7
-128 28 -171 64 -80 45 -77 528 -80 l429 -3 101 -97 c164 -160 302 -256 510
-357 419 -203 897 -253 1345 -140 182 46 382 127 524 214 l69 41 35 -41 c43
-50 85 -69 152 -69 93 0 165 57 190 148 16 62 -10 155 -54 191 -14 12 -8 22
50 85 297 319 477 719 525 1161 17 158 4 428 -26 563 l-5 22 155 0 c180 0 215
9 241 63 20 42 13 79 -21 113 -24 24 -26 24 -223 24 l-199 0 -17 45 c-20 51
-17 60 21 68 114 25 171 161 112 267 -40 73 -89 94 -229 98 l-115 4 -32 47
-33 46 288 5 c158 3 295 9 305 14 21 10 47 57 47 85 0 11 -11 33 -24 48 l-24
28 -373 3 -373 3 -86 83 c-85 82 -222 189 -327 255 -139 87 -404 196 -588 241
-32 7 -43 16 -52 40 -19 51 -88 66 -127 27z m373 -2072 c74 -31 483 -129 615
-147 88 -13 89 -13 104 -48 8 -19 21 -59 28 -88 l12 -52 -66 5 c-305 27 -566
97 -800 214 l-93 47 56 53 c31 29 61 50 68 47 7 -2 41 -17 76 -31z m-219 -240
c68 -34 195 -70 320 -89 130 -19 628 -86 647 -86 14 0 17 -37 7 -89 -6 -29 -9
-31 -53 -31 -68 1 -122 15 -240 66 -131 56 -219 77 -431 104 -91 12 -204 30
-252 41 l-86 20 10 37 c11 40 16 52 24 52 3 0 27 -11 54 -25z m50 -137 c215
-39 754 -194 851 -244 33 -16 35 -22 15 -49 -13 -18 -19 -18 -171 24 -87 24
-254 74 -371 112 -192 60 -328 96 -436 114 -31 5 -38 10 -38 29 0 12 3 26 7
29 6 7 49 3 143 -15z m189 -243 c44 -9 156 -38 248 -66 93 -28 208 -60 258
-71 49 -10 91 -20 92 -22 1 -1 -18 -19 -43 -40 -51 -43 -166 -106 -193 -106
-26 0 -143 42 -248 89 -107 48 -232 83 -285 79 -33 -2 -41 2 -64 32 -25 34
-64 104 -64 115 0 11 223 4 299 -10z"/>
</g>
</svg>
